HIERARCHY
ROOT base
{
	OFFSET 0.0 0.0 0.0
	CHANNELS 6 Xposition Yposition Zposition Zrotation Yrotation Xrotation
	JOINT root
	{
		OFFSET 0 0 0
		CHANNELS 6 Xposition Yposition Zposition Zrotation Yrotation Xrotation
		JOINT chest
		{
			OFFSET 0 4.72302 0
			CHANNELS 3 Zrotation Yrotation Xrotation
			JOINT neck
			{
				OFFSET 0 4.47788 0
				CHANNELS 3 Zrotation Yrotation Xrotation
				End Site
				{
					OFFSET 0.0 0.0 0.0
				}
			}
			JOINT right_shoulder
			{
				OFFSET -0.481 4.87 3.6622
				CHANNELS 3 Zrotation Yrotation Xrotation
				JOINT right_elbow
				{
					OFFSET 0 -5.49576 0
					CHANNELS 3 Zrotation Yrotation Xrotation
					JOINT right_wrist
					{
						OFFSET 0 -5.17894 0
						CHANNELS 3 Zrotation Yrotation Xrotation
						End Site
						{
							OFFSET 0.0 0.0 0.0
						}
					}
				}
			}
			JOINT left_shoulder
			{
				OFFSET -0.481 4.87 -3.6622
				CHANNELS 3 Zrotation Yrotation Xrotation
				JOINT left_elbow
				{
					OFFSET 0 -5.49576 0
					CHANNELS 3 Zrotation Yrotation Xrotation
					JOINT left_wrist
					{
						OFFSET 0 -5.17894 0
						CHANNELS 3 Zrotation Yrotation Xrotation
						End Site
						{
							OFFSET 0.0 0.0 0.0
						}
					}
				}
			}
		}
		JOINT right_hip
		{
			OFFSET 0 0 1.69774
			CHANNELS 3 Zrotation Yrotation Xrotation
			JOINT right_knee
			{
				OFFSET 0 -8.43092 0
				CHANNELS 3 Zrotation Yrotation Xrotation
				JOINT right_ankle
				{
					OFFSET 0 -8.1974 0
					CHANNELS 3 Zrotation Yrotation Xrotation
					End Site
					{
						OFFSET 0.0 0.0 0.0
					}
				}
			}
		}
		JOINT left_hip
		{
			OFFSET 0 0 -1.69774
			CHANNELS 3 Zrotation Yrotation Xrotation
			JOINT left_knee
			{
				OFFSET 0 -8.43092 0
				CHANNELS 3 Zrotation Yrotation Xrotation
				JOINT left_ankle
				{
					OFFSET 0 -8.1974 0
					CHANNELS 3 Zrotation Yrotation Xrotation
					End Site
					{
						OFFSET 0.0 0.0 0.0
					}
				}
			}
		}
	}
	JOINT red_arrow
	{
		OFFSET 0 0 0
		CHANNELS 3 Zrotation Yrotation Xrotation
		End Site
		{
			OFFSET 0.0 0.0 0.0
		}
	}
	JOINT blue_arrow
	{
		OFFSET 0 0 0
		CHANNELS 3 Zrotation Yrotation Xrotation
		End Site
		{
			OFFSET 0.0 0.0 0.0
		}
	}
}
MOTION
Frames: 17
Frame Time: 0.0333333333333333
0 18.08466 0 0 0 0 0 0 0 0 -90 0 0 0 0 0 0 0 0 0 -90 0 0 0 0 0 0 0 0 90 0 0 0 0 0 0 0 0 0 0 0 0 0 0 0 0 0 0 0 0 0 0 0 0 0 0 0 0 0 0
0.749672731757164 0 0.0681634686887264 0 0.41434108147686 0 0 16.9822478532791 0 -6.56555913611063 4.96961668978674E-17 0.585934934949866 -0.447948265815446 -5.16950980549654 0.89146702971482 0.463636391189958 0.491085618536369 -0.795217395807403 -14.1655889153888 10.4730495113573 -8.67353187258874 8.96409309220741 0 0 0 0 0 8.83451586039032 -17.9372360213573 20.7517603519466 33.1728183646883 0 0 0 0 0 27.5551557636385 -6.01784120038597 2.72897036895535 -12.7783114889108 0 0 -5.48993363334618 2.91272043606706 -5.23427713740975 -7.77149869623214 10.0647432043823 -1.27632216768533 -22.3943837034363 0 0 13.4349162912958 -8.50653620472908 11.224251725708 0 0 0 0 0 0
1.35713302791119 0 0.184497082233429 0 0.337116895547131 0 0 16.9875388026237 0 -8.10079388596629 -1.45262508928326 -1.40769051724287 -0.817109302844188 -4.32986881385431 1.37994424948118 0.0969880397434137 1.32602400878648 -1.63890633377242 -12.7171290965588 11.090515584448 -8.95356414082262 8.71118314007289 0 0 0 0 0 8.22137723764108 -17.727266533362 21.0205055275095 32.8301921702584 0 0 0 0 0 27.3371754044517 -4.81567285263107 5.66764498475486 -13.3736948099926 0 0 -6.18434268417007 1.92579630396784 -5.34006668248651 -4.0086187157974 10.6503399448963 1.42574949633367 -23.8865683012199 0 0 12.6761989091966 -9.39659344721903 9.84638452949322 0 0 0 0 0 0
1.99226360023022 0 0.272726614773273 0 0.202750515989697 0 0 17.050437438488 0 -9.03654734744363 -2.52131590924508 -3.1786790929957 -0.775526404338744 -4.51144604018895 1.57445912533083 -0.432990126379769 1.47730617063912 -2.33321685702124 -12.0717194061398 11.998566269198 -9.18065155580608 8.76073701627498 0 0 0 0 0 7.2778877685377 -16.9560786804779 20.2726344460855 32.1931643320334 0 0 0 0 0 26.0552594395421 -4.47389915691878 8.06521253176395 -13.5503371623074 0 0 -3.93149278042317 2.03099157285662 -5.48631527320131 -0.64671410809457 10.6656300318836 4.18239661288567 -28.1736099583119 0 0 9.46697879484983 -10.9784698147245 8.61566207709449 0 0 0 0 0 0
2.65184205472469 0 0.338718411326408 0 0.0241835868500391 0 0 17.0931151747704 0 -9.3177967910417 -3.34810815254372 -4.76166469405926 -0.404479646488522 -4.5266378589247 1.50210692240249 -0.709890507347528 1.45868902788056 -2.87190049634439 -10.9385253631225 13.3912599557824 -9.40167297540219 8.81289746341907 0 0 0 0 0 5.99682299072392 -15.4533820742062 18.9577700736023 31.040139607676 0 0 0 0 0 24.3840068174175 -3.9788869692143 10.0830024441058 -14.2571225762994 0 0 -1.32455393830299 2.0446451911524 -5.52718123357508 3.496401411708 9.93500600626392 6.92505740423175 -34.7826358954524 0 0 4.97266195129383 -11.8191422825735 7.48421005924648 0 0 0 0 0 0
3.32944841682911 0 0.366523237526417 0 -0.162576002655102 0 0 17.139858853817 0 -8.97263576535694 -3.50511874958933 -5.87029188290732 0.102532774953865 -4.31041972838984 0.862316383095836 -0.800527556966582 1.31771527758142 -3.40709885069171 -9.02084239821689 14.9748109214218 -9.68484361126651 9.06675766562187 0 0 0 0 0 4.37177438765286 -13.3502090528663 17.5727817045474 29.1009874306069 0 0 0 0 0 21.8593000359739 -3.79688305226058 11.2354553959131 -14.6738520543557 0 0 1.23949380784496 2.21338784450184 -5.45122140567033 8.6127956055369 8.14212066539364 9.31803897227712 -42.9939337118713 0 0 -0.464024979327136 -12.1016781700355 5.96251211672833 0 0 0 0 0 0
4.02813759446144 0 0.340137838572264 0 -0.312768973625122 0 0 17.2035555958748 0 -8.1279191363946 -2.82504770316139 -6.31830046943713 0.664660471876884 -3.73958000887228 -0.3456270830746 -0.817408760813851 1.17142773749841 -3.822533070127 -6.38625693550578 16.5440999938776 -10.1142113268519 9.76942276799705 0 0 0 0 0 2.45150258839904 -11.0052356692989 16.5179006608433 26.2375501493895 0 0 0 0 0 18.3527266808806 -3.79734585633548 11.3302869387335 -14.3231372084012 0 0 3.54900691364717 2.25067713377013 -5.16874448190288 14.489045483152 5.79071825343614 11.1560571409929 -51.482304982161 0 0 -6.89382438821742 -11.837823420382 4.08384771240359 0 0 0 0 0 0
4.75403885692358 0 0.246037137135863 0 -0.392774793594703 0 0 17.2821890711784 0 -6.88722333060104 -1.50914671539713 -5.9633391200327 1.2371167787485 -2.72447452560049 -2.06718013147914 -0.865135981301734 1.04400243189859 -4.08800726733945 -3.15589854968981 18.3175708337242 -10.7698427870127 10.9365885452573 0 0 0 0 0 0.180543163114956 -8.37842508013053 16.021416438687 22.6564153732074 0 0 0 0 0 13.9260802991896 -3.93158536744611 10.3477940336396 -13.1165194047214 0 0 5.56037214915918 2.126547094867 -4.65195239678128 20.9351821828836 3.49784594289927 12.2721706461674 -59.1669166663965 0 0 -11.6334110753426 -10.8313033034398 3.00276151575308 0 0 0 0 0 0
5.51461349278688 0 0.0764220714569092 0 -0.386577823401496 0 0 17.362299489975 0 -5.27794380844494 0.117243228666801 -4.8143379816628 1.69294465787264 -1.34577976053915 -4.04258819985373 -0.99227307501245 0.936720791780986 -4.17985905696935 0.54435689706923 20.4719365232278 -11.6235817359805 12.5530817321614 0 0 0 0 0 -2.39941832021998 -5.40746476058961 16.0819455607681 18.7270775531381 0 0 0 0 0 8.62867779795247 -4.28917232125975 8.43262752178513 -11.0946869339756 0 0 7.29270796806236 1.9482745125389 -3.89152570668802 27.6484165975971 1.74002225917025 12.6248666871926 -65.0786161477718 0 0 -13.3259681043324 -9.02219774473652 2.81200243800491 0 0 0 0 0 0
6.29098567441106 0 -0.161001604795456 0 -0.291425918261651 0 0 17.4176358699799 0 -3.5801167422305 1.80436036708659 -3.10547382439486 1.94830282590551 0.10904390856782 -5.93545256213193 -1.03890804577683 0.908920895227073 -4.06808303157456 4.49712748661566 22.9835799819083 -12.6336019360496 14.5435866865053 0 0 0 0 0 -5.12360654424944 -2.25108955185966 16.4567436224978 14.8634324925059 0 0 0 0 0 3.0317728147579 -5.09581082449245 5.94132717435749 -8.69028873762817 0 0 8.89206525933803 1.80031909721963 -2.91431566193805 34.5189219389888 0.621649826087009 12.2668143727684 -68.4793331845753 0 0 -12.5079883293821 -6.8386231331421 3.33048619525932 0 0 0 0 0 0
7.06265171319246 0 -0.440805964544415 0 -0.118061970343458 0 0 17.4251535415649 0 -2.06332064734004 3.29178409000039 -1.25635729061524 1.87051347675709 1.4849466884777 -7.48439951625186 -0.983763567205382 0.91533960439705 -3.84038977147741 8.35723673431128 25.6616974100076 -13.7328512122481 16.8268386713178 0 0 0 0 0 -7.79859931717878 0.928390279271835 16.8004675099552 11.4219819150398 0 0 0 0 0 -2.30136313186173 -6.36399507819028 3.41274504212339 -6.32888871654013 0 0 10.4949748895995 1.75452989331356 -1.78820594712018 40.9286162663608 0.125993584156087 11.3098187435542 -68.8747874771407 0 0 -9.73912505538666 -4.36187501505055 4.33029187084191 0 0 0 0 0 0
7.80650349445641 0 -0.729116401076317 0 0.125455090054525 0 0 17.3740731239319 0 -1.04622298792697 4.62605615863563 0.32171122828186 1.37273056296489 2.58177030660621 -8.68161732852487 -0.831724173205734 1.00350889942252 -3.57589409805827 11.8034453788347 28.3096363702618 -14.9033969198104 19.2416947410581 0 0 0 0 0 -10.3446429017512 3.8848836620366 16.8199538297605 8.67656688758562 0 0 0 0 0 -6.84642176164764 -7.88093915999119 1.33300002658269 -4.33682092953678 0 0 12.2014082116322 1.61535670296472 -0.642577239779779 46.209561888923 0.343501391062306 9.86829376749492 -66.1269135815853 0 0 -6.21890979520171 -1.96673251181522 4.85286884944416 0 0 0 0 0 0
8.49684180133045 0 -0.986838100105524 0 0.432475165691676 0 0 17.2649981975555 0 -0.882949990100403 5.83269357093691 1.2232843800535 0.494577236278698 3.13666344412053 -9.51188117360469 -0.550255928236586 1.23829391754132 -3.41364345318284 14.5897486796517 30.6057434777975 -16.1759508263421 21.6380205075802 0 0 0 0 0 -12.6516271590638 6.27368546959842 16.417104151474 6.67619615187247 0 0 0 0 0 -10.1447375360043 -9.54468412338332 0.123245403980538 -2.9252451571207 0 0 14.0367097650206 1.5137653754424 0.403099411573227 49.7612931890392 1.07238312902406 8.34491453011137 -60.3511416948825 0 0 -3.86286973095554 0.143514505587668 5.21035473087324 0 0 0 0 0 0
9.11864323839545 0 -1.19940793290734 0 0.794540861946354 0 0 17.1118719220161 0 -1.79302335592063 6.87591224923417 1.28835725521255 -0.736725546452805 3.07450920070373 -9.87534522150785 -0.257907698153752 1.68189867777403 -3.43961898924854 16.6116851605731 32.1283539126308 -17.4943103954683 23.808121871055 0 0 0 0 0 -14.4912900481089 7.85795247282955 15.66196345261 5.53172197058231 0 0 0 0 0 -12.059302864513 -11.0393604544076 -0.140561954709401 -1.94478772346465 0 0 15.8641215321237 1.42150394137235 1.28919369214536 51.2625462401406 2.05718470443535 6.98026603483 -51.9881522071867 0 0 -3.4467539699381 1.67000516300603 5.30623111098268 0 0 0 0 0 0
9.6860979527235 0 -1.38542768396437 0 1.19875690339935 0 0 16.930685710907 0 -3.75147035347016 7.66384399493205 0.722148280140137 -2.17260283966163 2.58656080382578 -9.8185518628487 -0.128743284204447 2.34228471980881 -3.64224588356801 18.0090878287886 32.86788128032 -18.6974394157828 25.5874373762621 0 0 0 0 0 -15.7786746677074 8.67009519227905 14.6761853564577 5.11569087936861 0 0 0 0 0 -12.8953256577951 -11.9861615402999 0.20927381441358 -0.903993039010936 0 0 17.4690606331593 1.10962086828887 2.01173249290393 50.7174940076012 3.35710704009738 5.63096135973272 -41.943156919389 0 0 -4.45959162161709 2.40563048605257 5.0708997024497 0 0 0 0 0 0
10.2264618188143 0 -1.56922334767878 0 1.61655421179051 0 0 16.7269038558006 0 -6.58528458803679 7.8864361146035 -0.249357383700548 -3.68470149583429 2.16071817962066 -9.39989514517702 -0.221656746506247 3.19652628417365 -3.88388673759143 19.1034844718807 33.0809925917183 -19.6886726416429 26.8745677423308 0 0 0 0 0 -16.6443839872707 9.26401109062482 13.5472441171748 5.34191400175542 0 0 0 0 0 -12.7375509607439 -12.1818752579858 0.745788259650712 0.00297858363180374 0 0 19.0159223691401 0.634122438723306 2.64998630075653 48.4076144902172 5.07824913030342 4.28477136820759 -31.0928447624064 0 0 -6.14659578925779 1.88900636929455 4.88819706109598 0 0 0 0 0 0
10.7824403762817 0 -1.76451531201601 0 2.01472637065826 0 0 16.4900539398193 0 -9.92351156670353 7.45336675438847 -1.47161217334729 -5.19317461408171 2.04799872574353 -8.78510944901594 -0.509674095565046 4.14033818414199 -4.10307015276471 20.0235750023612 33.0722454998146 -20.4156586368925 27.7962659123308 0 0 0 0 0 -17.3408231615969 9.87588339657176 12.3762097904561 6.03156673998807 0 0 0 0 0 -11.658582203969 -11.698341975213 1.22891183709847 0.00116776912342128 0 0 21.0461767881025 0.100167151334524 3.28588811151177 44.7743535825907 7.1629507332 2.95462827138062 -20.2114911031934 0 0 -8.09796184597297 0.111581746702265 4.43535899026764 0 0 0 0 0 0
